<svg width="761" height="150" viewBox="0 0 761 150" fill="none" xmlns="http://www.w3.org/2000/svg">
<path d="M0 0H29.5082V62.9508H0V0Z" fill="url(#paint0_linear_511_184)"/>
<path d="M0 67.3771H29.5082V130.328H0V67.3771Z" fill="url(#paint1_linear_511_184)"/>
<path d="M74.7541 0H104.262V62.9508H74.7541V0Z" fill="url(#paint2_linear_511_184)"/>
<path d="M74.7541 67.3771H104.262V130.328H74.7541V67.3771Z" fill="url(#paint3_linear_511_184)"/>
<path d="M112.623 19.6721H142.131V82.623H112.623V19.6721Z" fill="url(#paint4_linear_511_184)"/>
<path d="M112.623 87.0492H142.131V150H112.623V87.0492Z" fill="url(#paint5_linear_511_184)"/>
<path d="M36.8852 14.2623H66.3934V77.2131H36.8852V14.2623Z" fill="url(#paint6_linear_511_184)"/>
<path d="M36.8852 81.6393H66.3934V144.59H36.8852V81.6393Z" fill="url(#paint7_linear_511_184)"/>
<path d="M232.251 64.156C232.251 67.804 230.651 70.172 227.387 71.388C230.971 72.86 232.763 75.612 232.763 79.836V86.748C232.763 93.916 228.603 97.5 220.155 97.5H175.995V50.716H221.371C228.667 50.716 232.251 53.788 232.251 59.996V64.156ZM216.891 74.204H186.363V89.692H216.891C220.475 89.692 222.267 88.22 222.267 85.148V78.812C222.267 75.74 220.475 74.204 216.891 74.204ZM186.363 58.524V67.676H218.363C220.859 67.676 222.075 66.716 222.075 64.668V61.596C222.075 59.548 220.859 58.524 218.363 58.524H186.363ZM241.182 97.5V50.716H285.342C293.79 50.716 297.95 54.492 297.95 62.108V68.38C297.95 75.676 294.11 79.452 286.43 79.772L300.254 97.052V97.5H288.414L274.398 79.772H251.87V97.5H241.182ZM287.39 67.74V63.708C287.39 60.252 285.598 58.524 281.95 58.524H251.87V72.924H281.95C285.598 72.924 287.39 71.196 287.39 67.74ZM317.245 50.716V97.5H306.557V50.716H317.245ZM337.299 63.26V84.956C337.299 88.028 338.963 89.5 342.227 89.5H380.051V97.5H338.003C330.451 97.5 326.611 94.108 326.611 87.388V60.828C326.611 54.108 330.451 50.716 338.003 50.716H380.051V58.716H342.227C338.963 58.716 337.299 60.252 337.299 63.26ZM446.738 51.164L424.722 73.436L448.082 97.052V97.5H436.05L414.93 76.828H399.058V97.5H388.37V50.716H399.058V70.044H414.994L435.154 50.716H446.738V51.164ZM487.549 63.26V84.956C487.549 88.028 489.213 89.5 492.477 89.5H530.301V97.5H488.253C480.701 97.5 476.861 94.108 476.861 87.388V60.828C476.861 54.108 480.701 50.716 488.253 50.716H530.301V58.716H492.477C489.213 58.716 487.549 60.252 487.549 63.26ZM587.388 74.332H549.308V97.5H538.62V50.716H549.308V67.548H587.388V50.716H598.14V97.5H587.388V74.332ZM619.007 50.716H653.503C661.055 50.716 664.895 54.108 664.895 60.828V97.5H654.207V81.692H618.367V97.5H607.679V60.828C607.679 54.108 611.455 50.716 619.007 50.716ZM618.367 63.26V74.908H654.207V63.26C654.207 60.252 652.543 58.716 649.279 58.716H623.231C620.031 58.716 618.367 60.252 618.367 63.26ZM685.12 50.716V97.5H674.432V50.716H685.12ZM745.878 50.716H755.35V91.996C755.35 95.708 753.43 97.5 749.59 97.5H744.278C742.166 97.5 740.438 96.796 739.222 95.26L704.278 59.1V97.5H694.742V56.22C694.742 52.508 696.662 50.716 700.502 50.716H705.814C707.926 50.716 709.654 51.42 710.87 52.956L745.878 89.244V50.716Z" fill="url(#paint8_linear_511_184)"/>
<defs>
<linearGradient id="paint0_linear_511_184" x1="71.0656" y1="0" x2="71.0656" y2="150" gradientUnits="userSpaceOnUse">
<stop stop-color="#636363"/>
<stop offset="1" stop-color="#404040"/>
</linearGradient>
<linearGradient id="paint1_linear_511_184" x1="71.0656" y1="0" x2="71.0656" y2="150" gradientUnits="userSpaceOnUse">
<stop stop-color="#636363"/>
<stop offset="1" stop-color="#404040"/>
</linearGradient>
<linearGradient id="paint2_linear_511_184" x1="71.0656" y1="0" x2="71.0656" y2="150" gradientUnits="userSpaceOnUse">
<stop stop-color="#636363"/>
<stop offset="1" stop-color="#404040"/>
</linearGradient>
<linearGradient id="paint3_linear_511_184" x1="71.0656" y1="0" x2="71.0656" y2="150" gradientUnits="userSpaceOnUse">
<stop stop-color="#636363"/>
<stop offset="1" stop-color="#404040"/>
</linearGradient>
<linearGradient id="paint4_linear_511_184" x1="71.0656" y1="0" x2="71.0656" y2="150" gradientUnits="userSpaceOnUse">
<stop stop-color="#636363"/>
<stop offset="1" stop-color="#404040"/>
</linearGradient>
<linearGradient id="paint5_linear_511_184" x1="71.0656" y1="0" x2="71.0656" y2="150" gradientUnits="userSpaceOnUse">
<stop stop-color="#636363"/>
<stop offset="1" stop-color="#404040"/>
</linearGradient>
<linearGradient id="paint6_linear_511_184" x1="71.0656" y1="0" x2="71.0656" y2="150" gradientUnits="userSpaceOnUse">
<stop stop-color="#636363"/>
<stop offset="1" stop-color="#404040"/>
</linearGradient>
<linearGradient id="paint7_linear_511_184" x1="71.0656" y1="0" x2="71.0656" y2="150" gradientUnits="userSpaceOnUse">
<stop stop-color="#636363"/>
<stop offset="1" stop-color="#404040"/>
</linearGradient>
<linearGradient id="paint8_linear_511_184" x1="465.631" y1="113.5" x2="465.631" y2="36.5" gradientUnits="userSpaceOnUse">
<stop stop-color="#444444"/>
<stop offset="1" stop-color="#AAAAAA"/>
</linearGradient>
</defs>
</svg>
